<svg xmlns="http://www.w3.org/2000/svg" viewBox="0 0 900 420" role="img" aria-labelledby="title desc">
  <title id="title">Knowledge as a wall</title>
  <desc id="desc">A simple wall of rectangular blocks representing facts accumulating one at a time.</desc>
  <rect width="900" height="420" fill="#fffaf0"/>
  <g transform="translate(118 82)" fill="none" stroke="#7a4a2b" stroke-width="3">
    <rect x="0" y="162" width="156" height="54" rx="2" fill="#f6ecd9"/>
    <rect x="168" y="162" width="156" height="54" rx="2" fill="#fff7e8"/>
    <rect x="336" y="162" width="156" height="54" rx="2" fill="#f6ecd9"/>
    <rect x="504" y="162" width="156" height="54" rx="2" fill="#fff7e8"/>
    <rect x="84" y="96" width="156" height="54" rx="2" fill="#fff7e8"/>
    <rect x="252" y="96" width="156" height="54" rx="2" fill="#f6ecd9"/>
    <rect x="420" y="96" width="156" height="54" rx="2" fill="#fff7e8"/>
    <rect x="0" y="30" width="156" height="54" rx="2" fill="#f6ecd9"/>
    <rect x="168" y="30" width="156" height="54" rx="2" fill="#fff7e8"/>
    <rect x="336" y="30" width="156" height="54" rx="2" fill="#f6ecd9"/>
    <rect x="504" y="30" width="156" height="54" rx="2" fill="#fff7e8"/>
  </g>
  <g transform="translate(690 112)" fill="none" stroke="#456f55" stroke-width="4" stroke-linecap="round" stroke-linejoin="round">
    <rect x="0" y="0" width="112" height="48" rx="2" fill="#eef3e7"/>
    <path d="M56 58v64"/>
    <path d="M38 104l18 18 18-18"/>
  </g>
</svg>
